<svg width="38" height="38" viewBox="0 0 38 38" fill="none" xmlns="http://www.w3.org/2000/svg">
<path d="M11.0833 26.9167C13.7067 26.9167 15.8333 24.79 15.8333 22.1667C15.8333 19.5433 13.7067 17.4167 11.0833 17.4167C8.45996 17.4167 6.33331 19.5433 6.33331 22.1667C6.33331 24.79 8.45996 26.9167 11.0833 26.9167Z" fill="white"/>
<path d="M17.4166 14.25C20.04 14.25 22.1666 12.1234 22.1666 9.5C22.1666 6.87665 20.04 4.75 17.4166 4.75C14.7933 4.75 12.6666 6.87665 12.6666 9.5C12.6666 12.1234 14.7933 14.25 17.4166 14.25Z" fill="white"/>
<path d="M26.2833 32.6167C28.9067 32.6167 31.0333 30.4901 31.0333 27.8667C31.0333 25.2433 28.9067 23.1167 26.2833 23.1167C23.66 23.1167 21.5333 25.2433 21.5333 27.8667C21.5333 30.4901 23.66 32.6167 26.2833 32.6167Z" fill="white"/>
</svg>
